<?xml version="1.0" encoding="utf-8"?>
<!-- Generator: Adobe Illustrator 20.1.0, SVG Export Plug-In . SVG Version: 6.00 Build 0)  -->
<svg version="1.0" id="Calque_1" xmlns="http://www.w3.org/2000/svg" xmlns:xlink="http://www.w3.org/1999/xlink" x="0px" y="0px"
	 viewBox="0 0 183.6 219.4" style="enable-background:new 0 0 183.6 219.4;" xml:space="preserve">
<style type="text/css">
	.st0{fill:#BBC3C8;}
</style>
<g>
	<path class="st0" d="M183.6,160.2c-3.4,11-8.8,22-16.2,33c-11.3,17.2-22.6,25.8-33.9,25.8c-4.3,0-10.5-1.4-18.5-4.2
		c-7.6-2.8-14.2-4.2-19.9-4.2c-5.4,0-11.6,1.4-18.7,4.3c-7.1,3-12.9,4.5-17.4,4.5c-13.4,0-26.6-11.4-39.7-34.1
		C6.5,162.3,0,140.2,0,118.9c0-20,5-36.5,14.9-49.3c9.8-12.7,22.3-19,37.4-19c6.3,0,14.1,1.3,23.3,4c9.1,2.6,15.2,4,18.2,4
		c4,0,10.2-1.5,18.9-4.5c9-3,16.6-4.5,22.8-4.5c10.5,0,19.8,2.9,28.1,8.6c4.6,3.2,9.1,7.6,13.7,13.2c-7,5.9-12,11.1-15,15.6
		c-5.7,8.3-8.6,17.4-8.6,27.3c0,10.9,3,20.7,9.1,29.4S175.8,157.8,183.6,160.2z M134.1,5.5c0,5.4-1.3,11.3-3.8,17.9
		c-2.6,6.6-6.7,12.7-12.3,18.2c-4.7,4.7-9.5,7.9-14.2,9.5c-3.2,1-7.8,1.7-13.7,2.2c0.3-13.1,3.7-24.4,10.3-33.9
		c6.5-9.4,17.5-15.9,33-19.5c0.1,0.3,0.2,0.7,0.3,1.5c0.1,0.7,0.2,1.2,0.3,1.5c0,0.3,0,0.8,0.1,1.3C134.1,4.7,134.1,5.2,134.1,5.5z"
		/>
</g>
</svg>
